<?xml version="1.0" encoding="utf-8"?>
<!-- Generator: Adobe Illustrator 16.0.3, SVG Export Plug-In . SVG Version: 6.00 Build 0)  -->
<!DOCTYPE svg PUBLIC "-//W3C//DTD SVG 1.1//EN" "http://www.w3.org/Graphics/SVG/1.1/DTD/svg11.dtd">
<svg version="1.1" id="Ebene_1" xmlns="http://www.w3.org/2000/svg" xmlns:xlink="http://www.w3.org/1999/xlink" x="0px" y="0px"
	 width="602.332px" height="134px" viewBox="0 0 602.332 134" enable-background="new 0 0 602.332 134" xml:space="preserve">
<path fill="#2C4390" d="M307.922,11.678c1.187,8.111,2.447,16.361,3.338,24.472h-28.994v9.3l18.02,0.21v22.936h-18.02l-0.223,9.789
	l31.736,0.279l-7.043,23.774l-49.682-0.14l0.445-90.831L307.922,11.678L307.922,11.678z"/>
<path fill="#2C4390" d="M118.686,42.793c6.08,0.07,12.086,0.35,18.241,0.28l0.297-31.255h24.396l-0.371,91.669l-24.322-0.14V68.106
	h-18.39l-0.296,1.468l-0.149,33.633l-24.099-0.14l0.519-91.459l24.174,0.07V42.793L118.686,42.793z"/>
<path fill="#2C4390" d="M382.669,102.579h-11.494l-31.737-37.409l-0.149-0.07c-0.593,12.376,0,25.313-0.519,37.62l-24.47-0.28
	V11.957h12.605l31.368,36.5l0.072,0.14l0.297-29.087l0.149-7.832l24.246,0.14L382.669,102.579L382.669,102.579z"/>
<path fill="#2C4390" d="M26.589,28.459l-21.134-0.14c-2.669-0.698-4.968-3.146-5.339-5.803c-0.445-3.986,0.297-7.691,3.856-9.929
	l2.299-0.769h20.317V28.459L26.589,28.459z"/>
<path fill="#2C4390" d="M26.441,45.451l-16.314-0.42c-2.966-0.699-4.894-3.635-5.191-6.363c-0.296-3.426,0.445-7.131,4.004-8.809
	l2.299-0.63h15.202V45.451L26.441,45.451z"/>
<path fill="#2C4390" d="M67.001,12.307c10.53,0.84,20.392,9.161,23.358,18.53c4.522,13.635,2.669,30.137-8.676,40.275
	c-7.267,6.293-16.462,8.251-26.843,7.552l-0.222,0.49v23.704l-24.841,0.07l0.371-90.97L67.001,12.307L67.001,12.307z M54.989,34.333
	v21.677c2.151,0.419,4.672,0.349,6.674-0.35c3.411-0.979,6.155-4.475,6.674-7.691c0.89-4.615,0.074-9.23-3.708-12.236
	C62.107,33.564,58.252,34.612,54.989,34.333L54.989,34.333z"/>
<path fill="#2C4390" d="M250.826,37.13c8.008,15.802,5.412,37.688-6.6,50.974c-11.864,13.845-30.848,19.649-48.792,14.125
	c-18.168-5.594-31.441-23.705-32.034-41.465c-1.112-19.019,8.454-36.919,26.769-45.799c14.015-6.923,34.257-4.964,46.197,4.685
	C242.892,24.474,247.711,30.626,250.826,37.13L250.826,37.13z M212.637,35.732c-8.008-0.98-14.756,1.888-19.874,7.551
	c-5.783,6.363-6.674,17.132-2.669,24.543c3.337,6.503,10.38,11.467,18.019,11.747c8.009,0.28,15.276-3.356,19.428-10
	c5.116-7.132,4.375-18.6-0.89-25.383C223.092,39.578,218.124,36.71,212.637,35.732L212.637,35.732z"/>
<path fill="#2C4390" d="M26.441,62.023c-5.265-0.14-12.532,1.678-14.535-4.266c-1.261-3.077-0.815-7.133,1.409-9.649
	c3.263-3.356,8.676-1.539,13.125-2.027V62.023L26.441,62.023z"/>
<path fill="#2C4390" d="M480.254,8.181c1.482,0.839,1.482,2.377,2.521,3.147l12.309,0.28l-7.269,12.027
	c0.595,1.118,1.188,2.167,1.931,3.146c11.566-12.657,29.065-18.11,46.27-13.285c15.349,4.055,28.473,18.67,31.515,33.073
	c1.336,5.385,1.259,11.608,1.037,17.272c11.123,11.677,21.95,23.564,29.958,36.5c0.149,0.908,0.297,1.748-0.147,2.586
	c-0.667,0.77-1.929,0.84-2.669,0.28c-3.93-3.356-6.452-7.901-10.828-10.698c-2.37-0.28-3.855,2.027-6.153,0.979
	c-6.078-2.868-12.236-5.664-17.722-9.789c-3.411,4.056-7.638,8.88-12.458,11.957c-11.643,8.531-31.071,10.209-44.123,3.426
	c-12.975-5.734-22.096-18.46-25.283-30.767c-0.742-0.979-1.261-2.026-1.707-3.146l1.188-1.119
	c-1.335-7.901-0.076-16.013,2.521-23.005l-1.854-2.797l-11.197,18.74l24.991,45.241l-28.181-0.14
	c-3.855-6.783-7.783-13.636-11.641-20.418l-12.531,20.768l-27.511-0.14l-0.147,0.28l-24.694-0.14l0.446-90.83l24.842,0.209
	l-0.594,89.013l0.666-0.629l25.656-43.563l-24.99-44.82l28.327,0.139l11.347,20.139c3.113-4.406,6.006-9.651,8.972-14.475
	c-1.854-0.56-4.227,0.07-5.786-0.979c-1.628-2.098-2.816-5.874-6.375-5.454c-4.967-0.56-10.531,0.14-14.163-3.496
	c-7.785-0.42-16.535,0.769-22.84-3.427c-0.813-0.628-1.556-1.468-1.037-2.516c3.04-2.308,7.563-1.33,11.494-1.75
	C444.067,0.28,463.57,0.909,480.254,8.181L480.254,8.181z M420.338,1.259c-2.224,0.21-4.82-0.07-6.452,1.258
	c2.746,2.518,6.452,3.356,10.308,3.636c4.376,0.419,9.492-0.349,13.497,0.63c4.079,3.915,10.454,2.447,15.718,3.636
	c2.524,0.839,3.339,3.357,4.525,5.175c2.521,1.188,5.857,0.419,8.822,0.628c7.046,11.538,14.016,23.075,22.99,33.844
	c2.001,3.146,0.89,7.411,0.22,10.837c-2.002,4.545-8.304,0.98-11.048,4.545l6.377,10.699c1.408-0.56,2.744-1.678,4.152-1.749
	c0.519,2.518,0.299,5.525,2.372,7.272l17.28,2.937l-4.675-7.552c0.149-3.426-1.854-7.831,1.709-10.068
	c4.152-1.748,6.153,3.077,9.192,4.615c12.829,5.453,27.807,5.943,42.193,7.831c6.749,6.153,14.607,9.929,22.691,13.215
	c1.48-0.489,2.669-1.468,4.374-1.398c5.19,2.168,7.638,7.481,11.79,10.979l0.892,0.07c0.297-0.63,0-1.329-0.077-1.958
	c-4.894-6.224-8.601-12.937-14.162-18.88l-20.466-22.306c-2.744-3.496-7.639-2.798-11.714-2.518
	c-12.016,0.909-23.358-1.258-33.222-5.944c-1.408-1.118-3.56-2.446-3.484-4.405c0.519-1.118,1.777-0.909,2.816-1.118
	c-1.632-3.706-5.487-5.384-9.64-5.244c-2.816,0.418-6.452,3.076-8.899,0.07c-6.45-6.923-11.639-14.474-15.125-22.655
	c-1.632-2.518-1.485-5.804-3.708-8.181C462.011,1.609,441.249,1.259,420.338,1.259L420.338,1.259z M534.68,14.334
	c-16.758-4.265-33.144,1.12-44.193,13.496c2.224,3.846,5.413,7.271,8.306,10.837c1.112,0.63,2.002,1.818,3.632,1.33
	c2.968-1.749,7.342-1.609,10.679-0.489c2.966,1.328,4.967,4.545,6.006,7.201c-1.187-0.14-2.595-0.28-3.634,0.14
	c1.856,2.797,5.119,4.195,8.157,5.105C533.346,54.68,544.1,56.848,555,55.03c5.485-0.769,9.046,3.565,12.234,7.133
	c0.89-8.392-0.519-16.502-3.857-23.635C558.632,27.481,546.693,17.342,534.68,14.334L534.68,14.334z M481.958,42.305
	c-2.223,6.362-3.113,13.915-2.15,20.977c2.001-0.979,4.301-1.188,6.676-1.258c3.779-1.12,2.52-5.595,2.964-8.671
	C488.41,49.086,484.256,45.941,481.958,42.305L481.958,42.305z M506.8,68.106c-1.632,0.769-1.336,2.517-1.336,3.986
	c-1.186,5.944,4.005,9.439,6.303,13.985l-0.296,0.28c-6.672-1.119-13.421-2.308-20.17-3.427c-2.001-1.678-2.891-4.196-3.04-6.782
	l-3.632,1.748l-2.15-3.985c4.374,12.935,18.388,25.032,32.625,27.41c18.019,3.356,34.705-4.196,44.566-18.531l-2.669-2.097
	c-14.387-1.888-29.29-2.376-42.045-7.832C512.063,71.672,510.434,67.336,506.8,68.106L506.8,68.106z"/>
<path fill="#2C4390" d="M441.1,123.695c2.3-4.126,4.229-9.16,6.303-13.845c2.894-0.209,6.006-0.07,8.974-0.07
	c-3.04,7.901-6.746,15.873-10.009,23.914h-16.019c0.74-4.615,1.556-9.159,2.374-13.774l-0.521,0.56l-5.784,13.075
	c-4.819,0.21-9.936,0.21-14.756,0l10.677-23.774l21.061,0.07L441.1,123.695L441.1,123.695z"/>
<path fill="#2C4390" d="M483.441,133.904h-16.016l2.371-13.705l-0.517,0.49c-1.854,4.474-3.857,8.81-5.859,13.215l-14.683-0.21
	l10.531-23.563l21.208-0.14c-0.446,4.614-1.633,9.369-2.078,13.985l6.229-14.125l8.973,0.28L483.441,133.904L483.441,133.904z"/>
<path fill="#2C4390" d="M94.882,134.184H78.199c3.41-7.972,7.044-16.152,10.826-24.194l16.833,0.28L94.882,134.184L94.882,134.184z"
	/>
<path fill="#2C4390" d="M84.65,114.676l-7.342,0.138c-0.667,1.469-1.557,3.077-1.779,4.616h6.674l-1.706,4.545l-7.193-0.14
	l-2.299,5.454c2.076,0.42,4.449,0.14,6.674,0.21l-1.854,4.545l-23.655-0.14l10.455-23.773l23.729,0.28L84.65,114.676L84.65,114.676z
	"/>
<path fill="#2C4390" d="M185.126,123.975l0.519-0.49l5.784-13.215c2.743-0.209,5.933-0.14,8.898-0.14l-10.011,23.914H174.3
	l2.448-13.705l-0.593,0.489l-5.71,13.075h-14.831l10.678-23.773l21.134,0.14L185.126,123.975L185.126,123.975z"/>
<path fill="#2C4390" d="M130.921,110.41c1.705,0.14,3.485,0.908,4.152,2.517c0.445,1.887-0.667,3.497-1.038,5.244h-9.491
	c0.371-0.839,0.964-1.748,0.52-2.728c-0.594-0.559-1.409-0.559-2.151-0.28c-1.186,1.26-1.483,2.868-2.225,4.266
	c3.338,0.91,8.454-1.118,10.011,2.797c0.668,4.474-1.779,8.669-5.339,11.467c-6.673,1.05-14.311,0.63-21.282,0.35
	c-1.187-0.35-2.521-1.188-3.04-2.378c-0.519-2.167,0.223-4.195,0.964-6.083c5.042-0.14,10.308-0.14,15.35,0
	c-0.297,1.189-1.039,2.377-0.964,3.565c0.444,0.49,1.26,0.63,1.854,0.35c1.705-1.468,2.224-3.776,2.818-5.664
	c-4.82-0.49-10.011,1.118-14.164-0.839c-1.112-1.119-1.78-2.447-1.854-3.916c0.742-3.566,2.819-7.972,6.971-8.81L130.921,110.41
	L130.921,110.41z"/>
<path fill="#2C4390" d="M237.032,110.41l-1.557,4.266l-12.309,0.138c-2.669,4.545-4.449,9.511-6.822,14.196
	c-0.074,0.489,0.297,0.838,0.668,1.119c2.743,0.28,2.447-2.658,3.633-3.986l2.373-5.035l9.492-0.139
	c-2.226,4.125-3.189,8.74-7.045,12.166l-2.299,0.63l-19.725-0.07c-1.928-0.42-2.818-2.377-3.114-3.916
	c1.557-5.943,4.746-11.257,7.341-16.782c1.26-1.398,2.892-2.517,4.82-2.727C220.645,110.27,228.95,110.13,237.032,110.41
	L237.032,110.41z"/>
<path fill="#2C4390" d="M261.355,110.62c-0.964,4.685-1.854,9.3-2.818,13.985c3.114-4.265,6.302-9.3,9.343-13.985h17.5
	c-3.412,7.971-7.119,15.733-10.678,23.564c-3.041-0.21-6.154-0.14-9.195-0.14c1.854-4.266,3.707-8.531,5.561-12.867
	c-3.114,3.916-6.302,8.531-9.342,12.867l-13.2-0.14c0.89-4.405,1.408-8.951,2.299-13.425c-2.521,3.916-4.079,9.02-6.452,13.425
	H229.47c3.188-7.761,6.97-15.663,10.529-23.494L261.355,110.62L261.355,110.62z"/>
<path fill="#2C4390" d="M336.769,110.41c-1.336,2.936-2.744,6.153-4.302,9.159l3.113,0.28c1.707-2.938,2.818-6.154,4.227-9.23
	l0.521-0.209c3.115,0.209,6.303,0.07,9.492,0.07l-11.05,23.844c-3.189,0.56-6.524-0.14-9.863,0.07l4.747-10.279l-3.04-0.14
	l-4.82,10.349h-15.498l11.271-23.914H336.769L336.769,110.41z"/>
<path fill="#2C4390" d="M161.471,115.164h-7.192c-0.667,1.538-1.483,3.147-1.705,4.686h6.674l-1.78,4.475h-7.193
	c-0.815,1.818-1.706,3.566-2.224,5.454l6.525,0.21l-1.779,4.405l-23.729-0.07l10.53-23.844l23.803,0.28L161.471,115.164
	L161.471,115.164z"/>
<path fill="#2C4390" d="M54.025,110.62c1.112,0.419,2.299,1.119,2.817,2.167c0.594,3.357-1.631,6.783-4.819,8.531
	c-0.372,0.14-0.89,0.28-1.335,0.42c4.895,3.776-0.964,8.321-2.076,12.167h-9.64c1.038-2.867,2.67-5.874,3.708-8.951
	c0.148-0.628-0.371-1.048-0.89-1.328c-0.594-0.28-1.706-0.21-1.78,0.629l-4.227,9.439H19.989l10.827-23.424L54.025,110.62
	L54.025,110.62z M46.461,114.814c-3.411-0.908-2.744,3.147-4.152,4.755l2.15,0.14c1.409-1.048,2.076-2.728,2.373-4.405
	L46.461,114.814L46.461,114.814z"/>
<path fill="#2C4390" d="M413.886,111.108c1.111,0.28,2.374,0.91,2.669,2.028c0.67,1.678-0.072,3.357-0.369,4.896
	c-1.929,4.685-3.559,9.509-6.672,13.774c-1.634,1.608-3.708,2.238-6.006,2.238l-18.17-0.14c-1.185-0.35-2.52-1.119-2.966-2.377
	c-0.815-2.657,0.89-4.614,1.632-6.782l5.636-11.469c1.037-1.398,2.521-1.748,4.002-2.237L413.886,111.108L413.886,111.108z
	 M407.066,115.024l-1.558-0.139c-2.671,3.984-4.376,8.6-6.526,12.866c-0.297,0.77-0.965,1.817-0.149,2.517
	c0.892,0.49,1.558-0.42,2.228-0.909l6.006-12.935V115.024L407.066,115.024z"/>
<path fill="#2C4390" d="M382.3,110.76c1.333,0.279,2.37,1.468,2.889,2.657c0.67,3.286-1.333,6.293-4.225,7.901l-1.632,0.629
	c1.929,1.188,2.15,3.356,1.632,5.174c-0.67,3.357-4.079,6.293-7.64,6.923l-24.025-0.28l10.308-23.354L382.3,110.76L382.3,110.76z
	 M373.324,114.814l-2.149,5.036h1.483c2.15-0.35,2.076-2.938,2.966-4.406C375.327,114.256,374.066,114.954,373.324,114.814
	L373.324,114.814z M369.469,123.695c-0.891,1.888-2.076,3.845-2.67,5.664c0.89,0.07,1.779,0,2.521-0.349
	c1.039-1.329,1.706-2.867,2.003-4.545C371.322,123.695,370.136,123.415,369.469,123.695L369.469,123.695z"/>
<path fill="#2C4390" d="M311.779,110.76c1.26,0.349,2.595,1.188,3.113,2.376c0.668,1.888-0.074,3.846-0.964,5.455
	c-1.112,1.678-2.966,2.797-4.82,3.356c1.854,1.119,2.226,3.286,1.633,5.174c-0.668,3.357-4.08,6.293-7.64,6.923l-23.875-0.14
	l10.307-23.494L311.779,110.76L311.779,110.76z M303.102,114.885l-2.15,4.964c0.742-0.14,1.262,0.209,2.002,0.07
	c1.558-0.98,1.929-2.938,2.447-4.615C304.882,114.604,303.918,115.024,303.102,114.885L303.102,114.885z M299.617,123.695
	c-1.111,1.748-2.15,3.775-3.039,5.664h1.334c2.299-0.42,2.744-3.076,3.188-5.034C300.877,123.765,300.211,123.695,299.617,123.695
	L299.617,123.695z"/>
</svg>
